<?xml version="1.0" encoding="utf-8"?><svg xmlns="http://www.w3.org/2000/svg" xmlns:xlink="http://www.w3.org/1999/xlink"><symbol fill="currentColor" viewBox="0 0 24 24" id="1.2" xmlns="http://www.w3.org/2000/svg"><circle cx="12" cy="12" r="11.5" stroke="currentColor"/><path d="M15.72 12.64q-.64.64-2.04 1.92v.01q-.05.05-.05.14 0 .09.04.19.04.08.09.09.01.01.02.01h4.9q.02 0 .04-.01.04-.02.06-.05.03-.05.04-.1v-.02l.33-1.9v-.02q-.02-.03-.09-.03-.07 0-.09.03 0 .01-.01.02-.04.14-.12.25-.13.18-.37.28-.37.17-1.02.22-.65.04-1.93.04-.08 0-.1-.03-.01 0-.01-.01 0-.03.03-.07l.64-.48q1.14-.8 1.79-1.48.46-.48.59-1.05.06-.22.06-.46 0-.4-.17-.71-.12-.22-.33-.39-.5-.42-1.38-.42-.57 0-1.26.24-.34.11-.48.11-.11 0-.17-.05-.07-.07-.07-.22 0-.11.02-.19v-.01q0-.01-.03-.03-.02-.01-.03-.02h-.06q-.05 0-.06.02v.01l-.71 2.73v.02q.01.03.13.03.06 0 .07-.01v-.01q.38-1.08.76-1.6.22-.31.52-.43.2-.09.45-.09.3 0 .53.13.19.11.33.31.06.09.11.19.19.37.19.84v.08q-.02.43-.26.86-.26.47-.9 1.12zM5.11 14.99q0 .01.01.01.58 0 .91-.02l1.27-.02 1.26.02q.32.02.9.02.01 0 .02-.01.03-.01.03-.09t-.03-.09q-.01-.01-.02-.01-.63 0-.91-.07-.22-.07-.33-.21l-.06-.1q-.09-.23-.09-.72V8.79q0-.02-.01-.04-.01-.03-.03-.05-.01-.02-.04-.03-.02-.01-.03-.01-.04 0-.05.01l-2.92 1.38q-.02.01-.03.04-.02.03 0 .07.03.07.07.08h.03q.77-.3 1.02-.3.17 0 .27.08.07.05.11.14.1.21.1.72v2.82q0 .48-.11.71-.03.06-.06.11-.12.14-.35.21-.29.07-.92.07-.01 0-.01.01-.03.01-.03.09t.03.09zm5.74.01q.25.17.61.17.39 0 .62-.19.04-.03.07-.06l.05-.05q.2-.25.2-.68 0-.35-.16-.58-.04-.05-.09-.09l-.06-.06q-.24-.19-.63-.19-.37 0-.62.17-.05.04-.1.09-.07.07-.13.16-.13.21-.13.5 0 .37.17.61.04.06.09.11l.11.09z" fill-rule="evenodd"/></symbol><symbol fill="currentColor" viewBox="0 0 24 24" id="1.4" xmlns="http://www.w3.org/2000/svg"><circle cx="12" cy="12" r="11.5" stroke="currentColor"/><path d="M19.38 14.23q-.77.03-1.09.03V8.72v-.03q-.02-.02-.05-.04-.05-.02-.09-.02-.06 0-.1.03l-4.96 6.01q-.03.04-.04.08 0 .02.02.05.03.04.07.05.03.02.06.02 2.6 0 3.56.01v3.03q0 .11.03.12h.01l.1-.03 1.26-.62q.05-.03.09-.07.04-.06.04-.15v-2.23l1.06.05q.03 0 .05-.16.03-.16.03-.34 0-.24-.05-.25zm-14.71.76q.01.01.02.01.58 0 .91-.02l1.27-.02 1.26.02q.32.02.9.02.01 0 .01-.01.03-.01.03-.09t-.03-.09q0-.01-.01-.01-.63 0-.92-.07-.21-.07-.32-.21-.04-.05-.06-.1-.09-.23-.09-.72V8.79q0-.02-.01-.04-.01-.03-.03-.05-.02-.02-.04-.03-.02-.01-.04-.01-.03 0-.04.01l-2.92 1.38q-.02.01-.03.04-.02.03 0 .07.03.07.07.08h.03q.76-.3 1.02-.3.17 0 .27.08.07.05.11.14.1.21.1.72v2.82q0 .48-.11.71-.03.06-.07.11-.12.14-.34.21-.29.07-.92.07-.01 0-.01.01-.04.01-.04.09t.03.09zm12.09-.68q-.74.01-2.6.01-.09 0-.11-.03-.01-.03.03-.08l2.68-3.14v3.24zm-6.34.69q.24.17.61.17.38 0 .62-.19.04-.03.07-.06.02-.03.04-.05.21-.25.21-.68 0-.35-.17-.58-.03-.05-.08-.09l-.06-.06q-.24-.19-.63-.19-.37 0-.62.17-.05.04-.1.09-.08.07-.13.16-.13.21-.13.5 0 .37.17.61.04.06.09.11.05.05.11.09z" fill-rule="evenodd"/></symbol><symbol fill="currentColor" viewBox="0 0 24 24" id="3.1" xmlns="http://www.w3.org/2000/svg"><circle cx="12" cy="12" r="11.5" stroke="currentColor"/><path d="M10.27 13.71q-.57-.64-1.69-.81.62-.25 1.04-.69.14-.15.27-.33.33-.48.43-1.01.04-.22.04-.43 0-.38-.13-.69-.13-.33-.41-.6-.06-.07-.14-.13-.51-.41-1.35-.41-.35 0-.63.06-.27.05-.65.16-.35.13-.55.13-.13 0-.2-.06-.07-.07-.07-.21 0-.05.03-.18h.01q0-.02-.04-.03-.05-.03-.09-.03h-.01q-.03.01-.06.03l-.59 2.34v.02q.02.04.13.04.06 0 .06-.01.35-.88.9-1.35.37-.3.78-.41.22-.05.45-.05.21 0 .37.08.2.11.33.34.24.43.24 1.23 0 1.05-.51 1.64-.51.58-1.63.87-.01 0-.02.01-.02.02 0 .1.03.08.07.08h.01q.34-.09.66-.09.51 0 .89.22.23.13.4.35.03.02.05.05.43.56.43 1.45 0 1.03-.77 2.08-.76 1.04-2.5 1.75-.03.01-.04.04-.01.03.01.07.03.06.07.06.02.01.03 0 1.65-.49 2.76-1.19 1.12-.69 1.65-1.48.54-.78.54-1.53 0-.37-.11-.7-.14-.42-.46-.78zm5.02 1.28q0 .01.01.01.58 0 .91-.02l1.27-.02 1.26.02q.32.02.9.02.01 0 .02-.01.03-.01.03-.09t-.03-.09q-.01-.01-.02-.01-.63 0-.91-.07-.22-.07-.33-.21l-.06-.1q-.09-.23-.09-.72V8.79q0-.02-.01-.04-.01-.03-.03-.05-.01-.02-.04-.03-.02-.01-.03-.01-.04 0-.05.01l-2.92 1.38q-.02.01-.03.04-.02.03 0 .07.03.07.07.08h.03q.77-.3 1.02-.3.17 0 .27.08.07.05.11.14.1.21.1.72v2.82q0 .48-.11.71-.03.06-.06.11-.12.14-.35.21-.29.07-.92.07-.01 0-.01.01-.03.01-.03.09t.03.09zm-2.88.01q.24.17.6.17.39 0 .63-.19.04-.03.07-.06.02-.03.04-.05.21-.25.21-.68 0-.35-.17-.58-.03-.05-.08-.09l-.06-.06q-.24-.19-.64-.19-.37 0-.61.17-.05.04-.1.09-.08.07-.13.16-.13.21-.13.5 0 .37.17.61.04.06.09.11.05.05.11.09z" fill-rule="evenodd"/></symbol><symbol fill="currentColor" viewBox="0 0 44.004 13.322" id="Arrow1" xmlns="http://www.w3.org/2000/svg"><path d="M40.58 5.66l-3.95-3.95c-.39-.4-.39-1.02 0-1.42.4-.39 1.02-.39 1.42 0l5.65 5.66c.4.39.4 1.02 0 1.41l-5.65 5.66c-.4.4-1.02.4-1.42 0a.996.996 0 010-1.41l3.95-3.95H0v-2h40.58z" fill-rule="evenodd"/></symbol><symbol fill="currentColor" viewBox="0 0 24 24" id="facebook" xmlns="http://www.w3.org/2000/svg"><defs><clipPath id="ea"><path fill-opacity="0" d="M0 0h24v24H0z"/></clipPath></defs><path fill="none" d="M0 0h24v24H0z"/><g clip-path="url(#ea)"><path d="M15.4 21v-6.97h2.33l.35-2.71H15.4V9.59c0-.78.22-1.32 1.34-1.32h1.43V5.85c-.69-.07-1.39-.11-2.09-.1-2.06 0-3.48 1.26-3.48 3.58v1.99h-2.34v2.71h2.34V21H4a1 1 0 01-.71-.3A.984.984 0 013 20V4a.99.99 0 011-1h16c.26 0 .51.1.7.29A1 1 0 0121 4v16c0 .26-.11.51-.3.7-.19.19-.44.3-.7.3h-4.6z"/></g></symbol><symbol fill="currentColor" viewBox="0 0 24 24" id="inst" xmlns="http://www.w3.org/2000/svg"><defs><clipPath id="fa"><path fill-opacity="0" d="M0 0h24v24H0z"/></clipPath></defs><path fill="none" d="M0 0h24v24H0z"/><g clip-path="url(#fa)"><path d="M12 2c2.71 0 3.05.01 4.12.06 1.06.05 1.79.21 2.42.46.66.25 1.22.6 1.78 1.15.51.5.9 1.11 1.15 1.77.25.64.42 1.37.47 2.43.04 1.07.06 1.41.06 4.13 0 2.71-.01 3.05-.06 4.12-.05 1.06-.22 1.79-.47 2.42-.25.67-.64 1.28-1.15 1.78-.5.51-1.11.9-1.78 1.15-.63.25-1.36.41-2.42.46-1.07.05-1.41.07-4.12.07-2.72 0-3.06-.01-4.13-.07-1.06-.05-1.79-.21-2.42-.46-.67-.25-1.28-.64-1.78-1.15-.51-.5-.9-1.11-1.15-1.78-.25-.63-.42-1.36-.46-2.42C2.01 15.05 2 14.71 2 12c0-2.72.01-3.06.06-4.13.04-1.06.21-1.79.46-2.43.25-.66.64-1.27 1.15-1.77.5-.51 1.11-.9 1.78-1.15.63-.25 1.36-.41 2.42-.46C8.94 2.01 9.28 2 12 2zm0 5c-1.33 0-2.6.52-3.54 1.46S7 10.67 7 12a5.003 5.003 0 005 5c1.32 0 2.59-.53 3.53-1.47S17 13.32 17 12a5.003 5.003 0 00-5-5zm6.5-.25c0-.34-.14-.65-.37-.89a1.266 1.266 0 00-1.77 0 1.266 1.266 0 000 1.77c.24.23.55.37.89.37.33 0 .64-.14.88-.37.23-.24.37-.55.37-.88zM12 9c.79 0 1.55.31 2.12.87.56.57.88 1.33.88 2.13 0 .79-.32 1.55-.88 2.12-.57.56-1.33.88-2.12.88-.8 0-1.56-.32-2.13-.88a3.028 3.028 0 010-4.25C10.44 9.31 11.2 9 12 9z"/></g></symbol><symbol fill="currentColor" viewBox="0 0 24 24" id="log-in" xmlns="http://www.w3.org/2000/svg"><defs><clipPath id="ga"><path fill-opacity="0" d="M0 0h24v24H0z"/></clipPath></defs><path fill="none" d="M0 0h24v24H0z"/><g clip-path="url(#ga)"><path d="M15 3v2h4v14h-4v2h4c.53 0 1.03-.22 1.41-.59.37-.38.59-.88.59-1.41V5c0-.54-.22-1.04-.59-1.42C20.03 3.21 19.53 3 19 3h-4z" fill-rule="evenodd"/><path d="M10 17l5-5-5-5" stroke="currentColor" stroke-width="2" stroke-linejoin="round" stroke-linecap="round"/><path d="M15 13H3v-2h12v2zm-.02-1.98L15 11c.56 0 1 .44 1 1s-.44 1-1 1l-.02-.02v-1.96zM3.02 12.98L3 13c-.57 0-1-.44-1-1s.43-1 1-1l.02.02v1.96z" fill-rule="evenodd"/></g></symbol><symbol fill="currentColor" viewBox="0 0 65 20" id="logo" xmlns="http://www.w3.org/2000/svg"><path d="M42.56 8.45q.32 0 .51.16.26.22.26.75c0 .49-.14.97-.43 1.45-.27.45-.64.82-1.11 1.11-.47.3-.98.45-1.51.45-.57 0-1.31-.21-2.22-.62q-.55 4.03-2.83 6.15-.76.71-1.63 1.17-1.75.93-3.98.93c-1.39 0-2.65-.32-3.76-.95-1.08-.65-1.94-1.5-2.55-2.56a6.714 6.714 0 01-.93-3.45c0-.53.06-1.06.19-1.59q.14-.6.38-1.15.39-.89 1.03-1.67.75-.91 1.69-1.53.38-.25.78-.45 1.29-.64 2.61-.7.13-.01.25-.01c1.03 0 1.87.28 2.53.83 1.23-1.32 1.85-2.46 1.85-3.45 0-.37-.06-.65-.19-.85q-.18-.32-.52-.59c-.16-.16-.29-.29-.37-.41q-.12-.18-.12-.5t.14-.55q.06-.09.13-.16c.19-.18.43-.26.71-.26.45 0 .82.19 1.11.58.29.4.43.92.43 1.57q0 1.64-1.29 3.35c-.86 1.14-1.9 2.21-3.11 3.21q-1.82 1.48-4.56 3.45l-1.79 1.33c.21 1.06.63 2 1.27 2.82.63.81 1.39 1.44 2.27 1.89q.79.37 1.62.53.6.12 1.22.12 1.68 0 3.02-.68.89-.45 1.63-1.21c1.25-1.26 2.01-3.06 2.28-5.42l-.59-.29q-1.29-.65-2.06-.95c-.51-.21-1.01-.32-1.48-.32-.29 0-.52.06-.71.18-.16.11-.24.26-.24.44 0 .23.08.51.24.82.17.36.25.61.25.77 0 .18-.06.34-.18.5-.13.14-.31.21-.56.21-.25 0-.45-.07-.62-.21q-.21-.24-.21-.74c0-.51.16-1 .49-1.47.35-.47.79-.84 1.33-1.12q.72-.38 1.46-.43.11-.01.23-.01c.51 0 1.04.11 1.57.32.56.2 1.23.49 2.03.89.66.33 1.23.6 1.7.79q.71.27 1.29.27c.27 0 .49-.05.65-.15q.23-.15.27-.33.01-.04.01-.08c0-.18-.11-.4-.31-.68-.12-.16-.22-.29-.28-.41a.915.915 0 01-.09-.41q0-.29.14-.45.19-.23.66-.23zm20.89 2.5c-1-.9-2.37-1.45-4.09-1.65 1.21-.43 2.13-1.03 2.77-1.79.66-.77.99-1.62.99-2.57q0-.96-.42-1.69-.39-.67-1.12-1.13c-1.03-.65-2.48-.98-4.35-.98-.31 0-.67.01-1.08.03-.41.02-.71.04-.92.06-.62.06-1.21.09-1.79.09-.55 0-1.3-.02-2.25-.06l-1.63-.03c-.04 0-.06.06-.06.18s.02.18.06.18c.88 0 1.47.13 1.76.41.29.25.43.79.43 1.62v13.64c0 .57-.07 1-.22 1.29-.12.28-.34.47-.64.59-.31.1-.76.15-1.36.15-.06 0-.09.06-.09.17 0 .12.03.18.09.18.7 0 1.25-.01 1.66-.03l2.25-.03c.52 0 .98.01 1.39.03.43.02.79.04 1.08.06.74.06 1.39.09 1.97.09 1.33 0 2.55-.24 3.63-.71 1.09-.49 1.94-1.15 2.56-1.97.62-.83.93-1.75.93-2.77q0-.93-.34-1.72-.38-.91-1.21-1.64zM13.73 5.41c0 .04-.06.07-.18.09-.1.02-.17 0-.19-.06Q12.9 3.82 11.82 3q-.06-.05-.12-.09-1.17-.82-3.08-.82H7.7q-.93 0-1.36.38l-.06.06q-.37.38-.37 1.12v6.36h2.22q1.78 0 2.71-.59c.63-.41.95-.97.95-1.68 0-.04.06-.06.19-.06.12 0 .18.02.18.06l-.03 2.68q0 .94.03 1.42l.03 1.56c0 .06-.06.09-.18.09s-.19-.03-.19-.09q0-.57-.23-1.02-.24-.49-.75-.84-.96-.71-2.74-.71H5.91v6.31c0 .61.08 1.06.25 1.35.16.3.47.5.92.62.45.12 1.16.18 2.13.18h.01q.05.02.05.17c0 .12-.02.18-.06.18q-1.27 0-1.98-.03l-3.14-.03-2.31.03q-.61.03-1.69.03c-.06 0-.09-.06-.09-.18q0-.13.05-.16.02-.01.04-.01c.72 0 1.24-.05 1.57-.15.33-.1.54-.28.65-.56q.18-.44.18-1.32V3.62q0-.89-.15-1.3-.06-.15-.16-.27-.17-.2-.46-.29-.46-.17-1.42-.17-.02 0-.03-.01-.06-.03-.06-.17t.06-.17q.01-.01.03-.01h13.06q.18 0 .26.09.05.06.05.18l.06 3.91zM55.54 2.2c.22-.27.63-.41 1.23-.41q1.15 0 1.87.55.19.15.35.34.77.85.77 2.53c0 1.2-.29 2.18-.86 2.94q-.32.42-.73.69-.72.46-1.74.46l-1.23-.03V3.68c0-.73.11-1.22.34-1.48zm-31.28 8.31q-.15.94-.15 1.59 0 .33.06.91c.55-.43 1.13-.86 1.72-1.29q2.81-2.06 4.38-3.42c-.51-1.04-1.36-1.56-2.53-1.56-.8 0-1.52.36-2.15 1.09-.62.71-1.06 1.6-1.33 2.68zm36.14 7.5q-1.01 1.01-3.04 1.01c-.91 0-1.49-.12-1.76-.38-.27-.27-.4-.74-.4-1.38v-7.1c.47-.04 1.01-.06 1.6-.06 1.54 0 2.69.44 3.45 1.32.76.89 1.14 2.09 1.14 3.6q0 1.99-.99 2.99z" fill-rule="evenodd"/></symbol><symbol fill="currentColor" viewBox="0 0 26.004 13.322" id="next" xmlns="http://www.w3.org/2000/svg"><path d="M22.58 5.66l-3.95-3.95c-.39-.4-.39-1.02 0-1.42.4-.39 1.02-.39 1.42 0l5.65 5.66c.4.39.4 1.02 0 1.41l-5.65 5.66c-.4.4-1.02.4-1.42 0a.996.996 0 010-1.41l3.95-3.95H0v-2h22.58z" fill-rule="evenodd"/></symbol><symbol fill="currentColor" viewBox="0 0 24 24" id="number3" xmlns="http://www.w3.org/2000/svg"><path d="M24 12c0 6.62-5.38 12-12 12-6.63 0-12-5.38-12-12C0 5.37 5.37 0 12 0c6.62 0 12 5.37 12 12zm-1 0c0 6.06-4.94 11-11 11-6.07 0-11-4.94-11-11C1 5.93 5.93 1 12 1c6.06 0 11 4.93 11 11z" fill-rule="evenodd"/><path d="M4.07 14.56q1.39-1.28 2.03-1.92.64-.65.9-1.12c.18-.31.27-.62.27-.94q0-.47-.19-.84-.05-.1-.12-.19-.13-.2-.32-.31-.23-.13-.54-.13-.24 0-.45.09-.3.12-.52.43-.37.52-.76 1.6c0 .02-.02.02-.06.02q-.12 0-.13-.03v-.02l.7-2.73v-.01q.01-.02.07-.02c.03 0 .06 0 .08.02.03.02.04.03.03.04-.01.05-.02.12-.02.19 0 .18.08.27.24.27.1 0 .26-.03.48-.11q.69-.24 1.27-.24.88 0 1.37.42.21.17.33.39.17.31.17.71 0 .24-.05.46-.13.57-.6 1.05-.65.68-1.78 1.48l-.64.48c-.03.04-.04.06-.03.08q.03.03.11.03 1.28 0 1.92-.04c.44-.03.78-.11 1.03-.22s.41-.29.49-.53c.01-.04.04-.05.1-.05.06 0 .09.01.09.05l-.34 1.9c0 .04-.01.08-.04.12a.11.11 0 01-.1.06h-4.9q-.01 0-.01-.01-.06-.01-.09-.09a.433.433 0 01-.04-.19c0-.07.01-.11.05-.15zm15.92-.08c0-.17-.02-.25-.05-.25q-.77.03-1.09.03V8.72v-.03q-.02-.02-.05-.04-.05-.02-.09-.02c-.04 0-.08.01-.1.03l-4.96 6.01c-.04.05-.05.09-.02.13.04.05.08.07.13.07q2.6 0 3.56.01v3.03q0 .11.03.12h.01l.1-.03 1.26-.62q.05-.03.09-.07.04-.06.04-.15v-2.23l1.06.05c.02 0 .04-.05.05-.16.02-.11.03-.22.03-.34zm-2.67-.17c-.5.01-1.36.01-2.6.01-.11 0-.14-.03-.08-.11l2.68-3.14v3.24zm-6.34.69q-.06-.04-.11-.09-.05-.05-.09-.11-.17-.24-.17-.61 0-.29.13-.5.05-.09.13-.16.05-.05.1-.09.25-.17.62-.17c.3 0 .53.08.69.25.17.16.25.39.25.67 0 .31-.08.56-.25.73-.16.17-.39.25-.69.25q-.37 0-.61-.17z" fill-rule="evenodd"/></symbol><symbol fill="currentColor" viewBox="0 0 26.004 13.322" id="prev" xmlns="http://www.w3.org/2000/svg"><path d="M3.41 7.66l3.95 3.95c.4.39.4 1.01 0 1.41-.39.4-1.02.4-1.41 0L.29 7.36a.996.996 0 010-1.41L5.95.29a.996.996 0 011.41 0c.4.4.4 1.02 0 1.42L3.41 5.66H26v2H3.41z" fill-rule="evenodd"/></symbol><symbol fill="currentColor" viewBox="0 0 24 24" id="search" xmlns="http://www.w3.org/2000/svg"><defs><clipPath id="la"><path fill-opacity="0" d="M0 0h24v24H0z"/></clipPath></defs><path fill="none" d="M0 0h24v24H0z"/><g clip-path="url(#la)"><path d="M13 19c-4.42 0-8-3.59-8-8 0-4.42 3.58-8 8-8 4.41 0 8 3.58 8 8 0 4.41-3.59 8-8 8zm-1.37-2.16Q12.3 17 13 17q.69 0 1.36-.16.49-.11.97-.32.49-.2.94-.49.52-.34.97-.79.45-.45.79-.97.29-.45.49-.94.21-.48.32-.97.16-.67.16-1.36 0-.7-.16-1.37-.11-.49-.32-.97-.2-.49-.49-.94-.34-.52-.79-.97-.45-.45-.97-.79-.45-.29-.94-.49-.48-.21-.97-.32Q13.69 5 13 5q-.7 0-1.37.15-.49.11-.97.32-.49.2-.94.49-.52.34-.97.79-.45.45-.79.97-.29.45-.49.94-.21.48-.32.97Q7 10.3 7 11q0 .69.15 1.36.11.49.32.97.2.49.49.94.34.52.79.97.45.45.97.79.45.29.94.49.48.21.97.32z" fill-rule="evenodd"/><path d="M3 21l4.34-4.35" stroke="currentColor" stroke-width="2" stroke-linejoin="round" stroke-linecap="round"/></g></symbol><symbol fill="currentColor" viewBox="0 0 80.502 6.661" id="swipe-arrow" xmlns="http://www.w3.org/2000/svg"><path d="M78.79 2.83L76.81.85a.513.513 0 010-.71c.2-.19.51-.19.71 0l2.83 2.83c.2.2.2.51 0 .71l-2.83 2.83c-.2.2-.51.2-.71 0a.513.513 0 010-.71l1.98-1.97H0v-1h78.79z" fill-rule="evenodd"/></symbol><symbol fill="currentColor" viewBox="0 0 24 24" id="twit" xmlns="http://www.w3.org/2000/svg"><defs><clipPath id="na"><path fill-opacity="0" d="M0 0h24v24H0z"/></clipPath></defs><path fill="none" d="M0 0h24v24H0z"/><g clip-path="url(#na)"><path d="M22.16 5.65c-.77.34-1.58.56-2.4.66A4.26 4.26 0 0021.6 4c-.82.48-1.72.82-2.66 1.01a4.191 4.191 0 00-2.37-1.27c-.91-.15-1.85 0-2.66.44a4.166 4.166 0 00-2.1 4.64 11.825 11.825 0 01-8.62-4.37c-.37.64-.56 1.37-.56 2.11 0 1.45.74 2.73 1.86 3.48a4.19 4.19 0 01-1.9-.52v.05c0 .96.34 1.9.95 2.65a4.2 4.2 0 002.41 1.45c-.62.16-1.26.19-1.89.07.26.83.79 1.56 1.49 2.08s1.54.81 2.42.82c-.87.69-1.87 1.19-2.93 1.49-1.06.29-2.17.38-3.27.25 1.92 1.23 4.14 1.88 6.41 1.88 7.7 0 11.9-6.38 11.9-11.9 0-.18 0-.36-.01-.54a8.62 8.62 0 002.09-2.17z"/></g></symbol><symbol fill="currentColor" viewBox="0 0 20 16" id="youtube" xmlns="http://www.w3.org/2000/svg"><path d="M19.54 2.49C20 4.28 20 8 20 8s0 3.72-.46 5.5c-.26.98-1 1.76-1.94 2.02C15.89 16 10 16 10 16s-5.9 0-7.61-.48A2.828 2.828 0 01.45 13.5C0 11.72 0 8 0 8s0-3.72.45-5.51c.26-.98 1-1.76 1.94-2.02C4.1 0 10 0 10 0s5.89 0 7.6.47c.94.27 1.69 1.04 1.94 2.02zM8 11.5L14 8 8 4.5v7z"/></symbol></svg>