<?xml version="1.0" standalone="no"?>
<!DOCTYPE svg PUBLIC "-//W3C//DTD SVG 20010904//EN"
 "http://www.w3.org/TR/2001/REC-SVG-20010904/DTD/svg10.dtd">
<svg version="1.0" xmlns="http://www.w3.org/2000/svg"
 width="293.000000pt" height="293.000000pt" viewBox="0 0 293.000000 293.000000"
 preserveAspectRatio="xMidYMid meet">
<metadata>
Created by potrace 1.14, written by Peter Selinger 2001-2017
</metadata>
<g transform="translate(0.000000,293.000000) scale(0.100000,-0.100000)"
fill="#000000" stroke="none">
<path d="M1473 2914 c-6 -11 -9 -32 -8 -49 0 -16 -3 -36 -8 -42 -5 -7 -7 -13
-4 -13 3 0 0 -15 -8 -34 -8 -18 -11 -37 -7 -40 3 -4 0 -5 -8 -1 -12 4 -16 -5
-17 -42 -2 -27 -7 -49 -12 -51 -6 -2 -7 -10 -4 -18 3 -9 1 -25 -4 -37 -6 -12
-16 -39 -22 -59 -16 -50 4 -98 50 -121 19 -9 28 -17 21 -17 -7 0 -31 12 -53
27 -34 22 -42 24 -50 12 -12 -19 -11 -39 1 -39 6 0 10 -7 10 -16 0 -14 -2 -14
-15 0 -20 19 -49 10 -39 -13 3 -9 9 -24 11 -33 3 -10 9 -18 14 -18 5 0 9 -6 9
-14 0 -20 67 -84 92 -88 12 -2 24 -10 26 -18 4 -12 3 -13 -10 -2 -9 7 -20 12
-24 10 -5 -1 -19 3 -30 10 -12 6 -24 8 -28 5 -3 -3 -6 -1 -6 6 0 7 -4 10 -9 7
-5 -3 -23 2 -42 11 -23 12 -34 13 -37 5 -2 -8 -8 -7 -19 3 -8 8 -22 15 -31 16
-22 1 -43 5 -64 14 -12 5 -18 3 -18 -6 1 -16 30 -58 30 -43 0 5 5 1 11 -9 6
-9 15 -14 21 -11 6 4 8 3 5 -3 -6 -10 26 -43 43 -43 6 0 10 -4 10 -9 0 -5 10
-13 22 -17 20 -6 20 -7 3 -16 -12 -7 -20 -7 -25 2 -4 6 -13 10 -21 9 -15 -3
-132 51 -137 64 -2 4 -10 7 -18 7 -8 0 -37 11 -64 25 -27 14 -54 25 -59 25
-17 0 1 -40 30 -64 15 -13 26 -26 23 -29 -3 -2 6 -13 19 -23 12 -11 26 -27 30
-36 3 -10 14 -18 23 -18 10 0 14 -3 11 -7 -11 -11 13 -32 30 -26 10 4 14 2 11
-7 -5 -15 118 -81 138 -73 7 2 15 -5 19 -16 5 -18 10 -19 27 -10 17 9 19 8 16
-8 -2 -11 -11 -17 -23 -15 -11 2 -31 5 -43 6 -13 1 -27 8 -31 15 -9 14 -20 14
-38 0 -7 -7 -12 -6 -15 2 -2 6 -26 13 -53 15 -27 3 -53 8 -59 13 -6 4 -18 9
-26 9 -73 5 -133 12 -172 23 -27 7 -51 9 -55 4 -5 -4 -2 -10 5 -12 7 -3 24
-16 37 -28 12 -13 39 -33 60 -43 20 -11 36 -23 36 -26 -2 -19 0 -26 7 -24 11
3 52 -22 52 -32 0 -11 -53 -8 -61 3 -3 5 -21 11 -40 14 -19 2 -39 9 -45 14 -6
5 -15 4 -20 -1 -6 -6 -23 -3 -47 9 -20 10 -39 15 -42 11 -10 -15 98 -130 122
-130 7 0 13 -4 13 -10 0 -10 69 -44 83 -42 4 1 16 -7 28 -19 13 -13 27 -18 41
-13 12 3 24 1 28 -6 5 -7 23 -13 41 -12 18 0 38 -3 44 -8 6 -5 25 -8 42 -8 18
1 39 -5 47 -11 8 -7 20 -10 26 -6 15 9 82 -24 74 -37 -4 -6 -9 -6 -13 -1 -10
17 -51 34 -62 28 -5 -4 -15 -3 -22 3 -7 5 -41 8 -77 7 -36 -1 -71 2 -77 8 -7
5 -21 6 -30 2 -10 -5 -22 -7 -28 -5 -21 7 -245 7 -245 0 0 -4 -18 -6 -39 -4
-56 5 -57 -8 -3 -36 26 -12 54 -27 62 -31 66 -37 170 -75 198 -73 12 1 22 -3
22 -9 0 -5 14 -7 33 -4 32 5 74 -13 60 -26 -3 -4 -12 -2 -19 4 -9 7 -19 7 -36
-2 -13 -7 -29 -12 -36 -11 -7 2 -15 -4 -18 -11 -3 -9 -13 -13 -25 -10 -11 3
-19 0 -19 -6 0 -7 -5 -9 -12 -4 -7 4 -43 8 -80 9 -36 1 -75 7 -85 12 -11 6
-24 7 -31 3 -12 -7 67 -81 88 -81 6 0 13 -6 16 -14 3 -7 24 -17 47 -21 23 -4
49 -10 57 -12 8 -2 44 -5 81 -7 36 -1 70 -6 76 -9 7 -4 14 -3 17 2 3 5 26 7
51 6 26 -2 45 1 45 7 0 6 6 5 15 -2 19 -16 94 -23 109 -11 9 7 12 1 13 -22 1
-18 -1 -26 -3 -19 -8 17 -33 15 -40 -2 -3 -8 -12 -12 -20 -9 -8 3 -20 0 -28
-6 -7 -6 -16 -8 -20 -4 -11 11 -40 12 -52 2 -8 -7 -14 -7 -18 0 -4 6 -25 8
-49 5 -61 -8 -69 -12 -63 -32 5 -15 1 -18 -31 -15 -21 2 -32 0 -25 -3 22 -10
13 -24 -10 -16 -30 11 -84 -1 -80 -16 2 -14 -34 -17 -42 -3 -8 13 -79 8 -83
-6 -3 -7 13 -21 34 -30 21 -10 40 -21 43 -24 3 -3 42 -6 88 -5 46 1 86 -2 88
-6 6 -9 106 2 118 13 5 4 17 3 26 -4 14 -8 22 -8 33 1 14 12 47 7 47 -8 0 -14
-29 -32 -40 -25 -7 4 -14 -2 -17 -14 -3 -11 -10 -18 -16 -14 -5 3 -15 -1 -21
-9 -11 -15 -17 -18 -36 -18 -5 0 -10 -7 -10 -16 0 -8 -4 -13 -10 -9 -10 6 -66
-52 -62 -66 1 -5 -2 -9 -8 -9 -5 0 -10 -7 -10 -15 0 -9 -12 -18 -30 -21 -36
-8 -38 -17 -6 -32 25 -11 96 3 96 19 0 4 9 5 20 2 12 -3 20 0 20 7 0 9 3 10
13 1 10 -8 18 -6 33 7 10 9 27 17 37 17 9 0 16 2 15 5 -3 11 24 50 32 45 5 -3
12 -1 15 5 5 8 11 8 20 0 9 -8 15 -8 20 0 9 15 45 -7 45 -29 0 -12 -7 -17 -22
-17 -14 1 -22 -4 -20 -12 1 -9 -5 -11 -23 -6 -18 4 -27 2 -31 -10 -3 -9 -14
-15 -23 -14 -11 2 -16 -4 -15 -19 0 -16 -5 -23 -19 -23 -14 0 -18 -5 -14 -20
3 -11 0 -20 -6 -20 -15 0 -47 -104 -37 -120 11 -17 53 -21 69 -5 9 8 26 23 39
35 12 11 26 20 31 20 5 0 14 7 21 15 7 8 16 15 21 15 15 0 10 -27 -6 -33 -8
-4 -12 -15 -10 -26 2 -11 -3 -22 -11 -25 -9 -3 -12 -10 -9 -16 3 -6 -1 -18
-10 -27 -12 -11 -13 -18 -5 -23 13 -8 13 -20 0 -35 -4 -5 -11 -27 -14 -47 -5
-35 -4 -38 19 -38 16 0 32 11 47 30 12 17 28 30 35 30 8 0 17 10 22 22 6 17
10 3 16 -57 13 -132 15 -156 14 -265 0 -129 -3 -160 -18 -187 -13 -25 -14 -33
-3 -33 16 0 33 18 37 40 2 13 10 27 16 31 7 4 8 9 1 13 -7 4 -11 55 -11 129 0
67 -2 153 -5 190 -7 78 -2 94 22 75 50 -39 112 -55 155 -39 l27 10 -17 36 c-9
19 -23 35 -32 35 -8 0 -11 3 -8 6 8 8 -55 44 -65 37 -5 -2 -8 5 -8 16 0 12 -7
21 -15 21 -8 0 -15 4 -15 10 0 14 -42 50 -52 44 -14 -9 -9 23 7 36 12 10 16 9
21 -3 4 -12 58 -32 67 -24 1 1 13 -8 26 -20 17 -15 28 -20 36 -13 6 5 16 6 21
1 20 -18 89 -28 118 -16 l28 12 -38 37 c-22 20 -52 49 -69 65 -16 15 -47 31
-68 35 -30 6 -36 10 -28 20 14 16 -5 36 -35 36 -12 0 -25 7 -28 16 -9 24 -7
28 9 14 8 -7 24 -10 34 -7 12 3 22 -1 25 -10 4 -10 15 -14 29 -11 13 3 29 -2
36 -9 7 -7 16 -11 21 -8 5 3 20 0 32 -6 45 -24 208 -17 208 10 0 17 -34 52
-46 47 -8 -3 -14 -2 -14 3 0 5 -13 14 -30 21 -16 7 -30 19 -30 26 0 8 -7 14
-16 14 -8 0 -22 7 -31 15 -8 8 -19 13 -24 10 -5 -4 -9 -2 -9 4 0 6 -12 14 -27
17 -16 4 -37 13 -48 20 -13 9 -25 10 -35 4 -22 -14 -30 -12 -23 6 5 14 1 16
-26 12 -23 -3 -35 0 -38 9 -9 23 13 39 32 23 11 -9 15 -9 15 -1 0 7 4 10 9 7
5 -4 11 0 14 6 3 10 7 10 19 0 9 -7 23 -10 32 -6 9 3 23 1 31 -6 8 -7 26 -9
44 -5 17 3 32 2 36 -5 3 -5 12 -7 18 -3 6 4 26 6 43 5 18 -2 35 2 39 8 3 6 11
8 16 5 12 -8 51 4 45 14 -3 4 7 8 21 9 14 1 41 11 59 23 19 11 34 17 34 12 0
-4 5 0 11 11 13 22 -6 40 -31 30 -8 -4 -21 -6 -27 -5 -37 3 -43 5 -43 12 0 4
-12 6 -27 4 -15 -1 -33 3 -40 11 -8 7 -20 11 -27 8 -8 -3 -17 -1 -21 5 -4 8
-12 8 -26 1 -15 -9 -19 -7 -19 5 0 14 21 21 45 15 6 -1 15 -2 20 -1 6 1 24 3
40 5 70 8 115 19 115 28 0 5 17 16 38 24 38 17 82 51 82 66 0 5 -10 4 -21 -3
-24 -13 -104 -5 -125 11 -8 8 -14 8 -19 0 -4 -7 -12 -7 -26 0 -10 6 -19 8 -19
5 0 -3 -8 -1 -18 4 -11 6 -24 6 -35 0 -12 -7 -17 -6 -17 2 0 7 -11 10 -30 7
-17 -3 -33 -1 -36 4 -3 4 -20 8 -37 8 -18 0 -39 5 -47 10 -11 7 -6 10 20 9 19
0 55 2 80 5 25 3 70 6 100 8 32 2 60 9 66 17 6 8 16 11 22 7 12 -7 74 21 80
37 2 4 11 7 20 7 24 0 122 47 122 59 0 14 -32 19 -52 7 -11 -7 -28 -6 -50 0
-18 6 -95 10 -171 9 -76 0 -141 3 -143 7 -3 4 4 8 16 8 11 0 23 6 25 13 3 7
25 12 53 13 26 0 63 8 82 16 53 24 74 31 83 29 4 -1 15 5 23 14 9 8 27 18 42
22 15 3 29 9 32 13 3 4 24 17 48 29 24 12 42 27 39 34 -4 14 -14 15 -79 6 -27
-3 -48 -3 -48 1 0 3 -50 5 -111 5 -83 -1 -113 -5 -119 -15 -5 -8 -12 -11 -15
-8 -4 4 -17 3 -29 -2 -13 -4 -29 -4 -39 1 -12 7 -22 4 -36 -10 -13 -13 -23
-16 -27 -10 -3 6 -17 9 -29 7 -16 -3 -22 -1 -18 7 2 7 19 12 36 11 23 -1 32 3
31 14 -1 10 8 17 24 18 14 1 33 9 43 18 10 9 22 13 27 10 13 -8 35 20 27 34
-3 5 0 10 9 10 21 0 118 97 155 154 49 78 39 117 -15 54 -17 -21 -36 -33 -53
-34 -35 -1 -85 -15 -92 -27 -4 -5 -14 -7 -23 -5 -12 2 6 26 64 88 44 47 80 88
80 93 0 12 -30 8 -63 -10 -18 -9 -35 -16 -39 -15 -5 1 -8 -2 -8 -7 0 -5 -9 -7
-20 -4 -12 3 -20 0 -20 -7 0 -6 -6 -10 -12 -7 -7 2 -18 -3 -25 -12 -10 -14
-12 -14 -19 2 -7 18 2 30 59 85 15 15 27 32 27 39 0 14 -45 8 -66 -8 -15 -12
-107 -39 -112 -34 -3 2 -13 0 -23 -5 -12 -7 -20 -6 -24 1 -5 7 -13 5 -25 -6
-12 -11 -20 -13 -25 -5 -3 6 -3 9 2 8 13 -4 123 76 119 87 -3 11 -31 12 -118
2 -34 -3 -58 -2 -58 4 0 5 7 9 15 9 19 0 75 76 75 102 0 22 -28 24 -56 3 -10
-8 -26 -14 -34 -14 -11 0 -10 2 3 10 28 16 50 75 37 99 -8 14 -7 25 2 40 11
18 10 23 -4 34 -11 8 -14 17 -8 26 13 21 1 43 -16 29 -18 -15 -20 11 -2 29 8
8 8 15 -1 26 -8 10 -9 16 -1 21 6 3 7 12 3 18 -7 12 -10 22 -18 62 -2 11 -7
31 -10 45 -4 14 -8 44 -10 68 -3 52 -19 73 -32 46z m-28 -614 c3 -6 -1 -7 -9
-4 -18 7 -21 14 -7 14 6 0 13 -4 16 -10z m52 -56 c-3 -3 -12 -4 -19 -1 -8 3
-5 6 6 6 11 1 17 -2 13 -5z m73 -88 c0 -3 -4 -8 -10 -11 -5 -3 -10 -1 -10 4 0
6 5 11 10 11 6 0 10 -2 10 -4z m-245 -46 c-3 -5 -1 -10 5 -10 6 0 8 -5 5 -10
-4 -6 -11 -8 -16 -5 -12 8 -11 35 2 35 5 0 7 -4 4 -10z m49 -36 c5 -14 4 -15
-9 -4 -17 14 -19 20 -6 20 5 0 12 -7 15 -16z m58 -26 c-5 -31 -6 -32 -12 -8
-7 27 -2 52 9 45 4 -2 5 -19 3 -37z m322 30 c-3 -4 -9 -8 -15 -8 -5 0 -9 4 -9
8 0 5 7 9 15 9 8 0 12 -4 9 -9z m-37 -24 c-3 -3 -12 -4 -19 -1 -8 3 -5 6 6 6
11 1 17 -2 13 -5z m-229 -77 c3 -13 -1 -14 -20 -5 -13 6 -24 20 -24 30 0 15 3
16 21 4 11 -7 21 -20 23 -29z m-74 -68 c-3 -5 -10 -7 -15 -3 -5 3 -7 10 -3 15
3 5 10 7 15 3 5 -3 7 -10 3 -15z m-44 -9 c0 -5 -2 -10 -4 -10 -3 0 -8 5 -11
10 -3 6 -1 10 4 10 6 0 11 -4 11 -10z m140 -60 c0 -5 -5 -10 -11 -10 -5 0 -7
5 -4 10 3 6 8 10 11 10 2 0 4 -4 4 -10z m-83 -92 c-3 -8 -6 -5 -6 6 -1 11 2
17 5 13 3 -3 4 -12 1 -19z m10 -150 c-3 -7 -5 -2 -5 12 0 14 2 19 5 13 2 -7 2
-19 0 -25z m323 -52 c0 -3 -4 -8 -10 -11 -5 -3 -10 -1 -10 4 0 6 5 11 10 11 6
0 10 -2 10 -4z m-80 -10 c0 -2 -8 -10 -17 -17 -16 -13 -17 -12 -4 4 13 16 21
21 21 13z m-144 -41 c-9 -9 -17 -14 -17 -11 -5 22 -3 32 6 38 18 13 28 -10 11
-27z m46 3 c-7 -7 -12 -8 -12 -2 0 6 3 14 7 17 3 4 9 5 12 2 2 -3 -1 -11 -7
-17z m-392 -38 c0 -13 -11 -13 -30 0 -12 8 -11 10 8 10 12 0 22 -4 22 -10z
m25 -38 c-3 -3 -11 0 -18 7 -9 10 -8 11 6 5 10 -3 15 -9 12 -12z m425 -51 c22
-7 20 -8 -16 -12 -31 -3 -40 -1 -37 8 6 14 15 15 53 4z m20 -166 c-7 -8 -17
-12 -23 -8 -6 4 -3 9 9 14 27 11 28 11 14 -6z m71 -6 c-14 -5 -28 -6 -33 -1
-4 4 7 9 25 9 30 2 31 2 8 -8z m-394 -119 c3 -23 -2 -25 -21 -8 -9 9 -10 16
-2 24 13 14 19 10 23 -16z m53 15 c0 -8 -4 -15 -10 -15 -5 0 -10 7 -10 15 0 8
5 15 10 15 6 0 10 -7 10 -15z m40 -335 c0 -5 -2 -10 -4 -10 -3 0 -8 5 -11 10
-3 6 -1 10 4 10 6 0 11 -4 11 -10z"/>
</g>
</svg>
